<svg xmlns="http://www.w3.org/2000/svg" shape-rendering="geometricPrecision" text-rendering="geometricPrecision" image-rendering="optimizeQuality" fill-rule="evenodd" clip-rule="evenodd" viewBox="0 0 512 442.59"><path fill="#fff" d="M512 102.003c-2.316 49.823-37.119 118.182-104.468 204.795-69.644 90.449-128.582 135.793-176.799 135.793-29.794 0-55.117-27.507-75.742-82.642-13.79-50.522-27.507-101.047-41.336-151.551-15.303-55.135-31.733-82.642-49.334-82.642-3.817 0-17.223 8.1-40.211 24.104L0 118.839c25.311-21.618 50.301-44.337 74.536-66.3 33.707-29.104 59.039-44.406 75.942-46.042 39.824-3.808 64.457 23.405 73.625 81.743 9.897 62.942 16.805 102.067 20.719 117.381 11.494 52.207 24.104 78.332 37.913 78.332 10.692 0 26.826-16.912 48.32-50.855 21.409-33.802 32.915-59.606 34.512-77.34 3.109-29.197-8.394-43.925-34.512-43.925-12.299 0-24.906 2.816-37.915 8.421C318.33 37.809 366.359-2.202 437.402.093c52.545 1.398 77.348 35.502 74.353 102.267l.049-.03.196-.327z"/></svg>